<svg width="30" height="32" viewBox="0 0 30 32" fill="none" xmlns="http://www.w3.org/2000/svg">
<path d="M22.9167 22.3333H26.0833V3.33329H10.25V6.49996H22.9167V22.3333ZM22.9167 25.5V30.25C22.9167 31.124 22.2042 31.8333 21.3223 31.8333H2.34442C2.13562 31.8345 1.92863 31.7945 1.73534 31.7155C1.54206 31.6365 1.36629 31.5201 1.21813 31.373C1.06997 31.2259 0.952339 31.0509 0.872003 30.8582C0.791666 30.6655 0.750205 30.4588 0.75 30.25L0.75475 8.08329C0.75475 7.20929 1.46725 6.49996 2.34917 6.49996H7.08333V1.74996C7.08333 1.33003 7.25015 0.927306 7.54708 0.630374C7.84401 0.333441 8.24674 0.166626 8.66667 0.166626H27.6667C28.0866 0.166626 28.4893 0.333441 28.7863 0.630374C29.0832 0.927306 29.25 1.33003 29.25 1.74996V23.9166C29.25 24.3366 29.0832 24.7393 28.7863 25.0362C28.4893 25.3331 28.0866 25.5 27.6667 25.5H22.9167ZM3.92142 9.66663L3.91667 28.6666H19.75V9.66663H3.92142ZM7.08333 22.3333H14.2083C14.4183 22.3333 14.6197 22.2499 14.7681 22.1014C14.9166 21.953 15 21.7516 15 21.5416C15 21.3317 14.9166 21.1303 14.7681 20.9818C14.6197 20.8334 14.4183 20.75 14.2083 20.75H9.45833C8.40852 20.75 7.4017 20.3329 6.65937 19.5906C5.91704 18.8483 5.5 17.8414 5.5 16.7916C5.5 15.7418 5.91704 14.735 6.65937 13.9927C7.4017 13.2503 8.40852 12.8333 9.45833 12.8333H10.25V11.25H13.4167V12.8333H16.5833V16H9.45833C9.24837 16 9.04701 16.0834 8.89854 16.2318C8.75007 16.3803 8.66667 16.5817 8.66667 16.7916C8.66667 17.0016 8.75007 17.203 8.89854 17.3514C9.04701 17.4999 9.24837 17.5833 9.45833 17.5833H14.2083C15.2581 17.5833 16.265 18.0003 17.0073 18.7427C17.7496 19.485 18.1667 20.4918 18.1667 21.5416C18.1667 22.5914 17.7496 23.5983 17.0073 24.3406C16.265 25.0829 15.2581 25.5 14.2083 25.5H13.4167V27.0833H10.25V25.5H7.08333V22.3333Z" fill="white"/>
</svg>
