<svg width="38" height="38" viewBox="0 0 38 38" fill="none" xmlns="http://www.w3.org/2000/svg">
<path d="M4.43327 8.23336L11.0833 12.6667L17.7111 3.38836C17.8576 3.18311 18.0509 3.01581 18.2751 2.90038C18.4993 2.78495 18.7478 2.72473 18.9999 2.72473C19.2521 2.72473 19.5006 2.78495 19.7248 2.90038C19.9489 3.01581 20.1423 3.18311 20.2888 3.38836L26.9166 12.6667L33.5666 8.23336C33.8183 8.06592 34.1126 7.97402 34.4149 7.96853C34.7171 7.96303 35.0146 8.04417 35.2722 8.20236C35.5298 8.36055 35.7367 8.58917 35.8685 8.86121C36.0003 9.13325 36.0515 9.43733 36.016 9.73753L33.4146 31.8519C33.3692 32.2371 33.1841 32.5922 32.8943 32.8499C32.6045 33.1076 32.2302 33.25 31.8424 33.25H6.15752C5.76971 33.25 5.3954 33.1076 5.1056 32.8499C4.81579 32.5922 4.63064 32.2371 4.58527 31.8519L1.98385 9.73594C1.9487 9.43588 2.00014 9.13201 2.13208 8.86023C2.26403 8.58845 2.47098 8.36009 2.72851 8.20211C2.98604 8.04413 3.28339 7.96313 3.58546 7.96867C3.88753 7.9742 4.18171 8.06605 4.43327 8.23336ZM18.9999 23.75C19.8398 23.75 20.6452 23.4164 21.2391 22.8225C21.833 22.2287 22.1666 21.4232 22.1666 20.5834C22.1666 19.7435 21.833 18.9381 21.2391 18.3442C20.6452 17.7503 19.8398 17.4167 18.9999 17.4167C18.1601 17.4167 17.3546 17.7503 16.7608 18.3442C16.1669 18.9381 15.8333 19.7435 15.8333 20.5834C15.8333 21.4232 16.1669 22.2287 16.7608 22.8225C17.3546 23.4164 18.1601 23.75 18.9999 23.75Z" fill="white"/>
</svg>
