<svg width="38" height="38" viewBox="0 0 38 38" fill="none" xmlns="http://www.w3.org/2000/svg">
<path d="M15.1209 18.2084C14.176 18.2084 13.2699 17.833 12.6018 17.1649C11.9337 16.4968 11.5584 15.5907 11.5584 14.6459C11.5584 13.701 11.9337 12.7949 12.6018 12.1268C13.2699 11.4587 14.176 11.0834 15.1209 11.0834C16.0657 11.0834 16.9718 11.4587 17.6399 12.1268C18.308 12.7949 18.6834 13.701 18.6834 14.6459C18.6834 15.5907 18.308 16.4968 17.6399 17.1649C16.9718 17.833 16.0657 18.2084 15.1209 18.2084ZM15.8334 31.2677V25.9667C15.8334 25.194 16.0614 24.4831 16.473 23.8482C15.0617 23.6474 13.6241 23.7432 12.2519 24.1296C10.8798 24.5159 9.60333 25.1842 8.5041 26.0918C10.2348 28.6529 12.8411 30.494 15.8334 31.2693V31.2677ZM7.0506 23.2117C9.36305 21.5004 12.1649 20.5788 15.0417 20.5834C16.6931 20.5834 18.2764 20.881 19.7394 21.4257C21.1296 20.8826 22.7874 20.5834 24.5417 20.5834C27.17 20.5834 29.5846 21.2547 31.2012 22.4137C31.7356 20.4977 31.8113 18.4827 31.4221 16.5319C31.0328 14.5812 30.1897 12.7496 28.9608 11.1854C27.7319 9.62117 26.152 8.36837 24.3488 7.52843C22.5457 6.68849 20.57 6.28503 18.5819 6.35072C16.5939 6.41641 14.6492 6.94941 12.9054 7.90655C11.1616 8.86369 9.66781 10.2181 8.54489 11.86C7.42197 13.5019 6.70154 15.3852 6.44193 17.3574C6.18232 19.3295 6.39084 21.3351 7.0506 23.2117ZM29.8918 25.4695C29.2695 24.6256 27.1874 23.75 24.5417 23.75C21.3655 23.75 19 25.0119 19 25.9667V31.6667C21.1974 31.6679 23.3573 31.0972 25.2673 30.0106C27.1773 28.924 28.7716 27.359 29.8934 25.4695H29.8918ZM19 34.8334C10.2553 34.8334 3.16669 27.7448 3.16669 19C3.16669 10.2553 10.2553 3.16669 19 3.16669C27.7448 3.16669 34.8334 10.2553 34.8334 19C34.8334 27.7448 27.7448 34.8334 19 34.8334ZM24.5417 19.7917C23.7018 19.7917 22.8964 19.4581 22.3025 18.8642C21.7087 18.2703 21.375 17.4649 21.375 16.625C21.375 15.7852 21.7087 14.9797 22.3025 14.3859C22.8964 13.792 23.7018 13.4584 24.5417 13.4584C25.3815 13.4584 26.187 13.792 26.7809 14.3859C27.3747 14.9797 27.7084 15.7852 27.7084 16.625C27.7084 17.4649 27.3747 18.2703 26.7809 18.8642C26.187 19.4581 25.3815 19.7917 24.5417 19.7917Z" fill="white"/>
</svg>
