<svg width="38" height="38" viewBox="0 0 38 38" fill="none" xmlns="http://www.w3.org/2000/svg">
<path d="M28.5001 26.9167V34.8334H25.3334V26.9167C25.3334 19.8693 29.5197 13.7988 35.5411 11.058L36.8521 13.9397C34.3611 15.0727 32.2489 16.8989 30.7679 19.2C29.2868 21.5012 28.4995 24.1801 28.5001 26.9167ZM12.6667 26.9167V34.8334H9.50006V26.9167C9.5003 24.1804 8.71287 21.5018 7.23184 19.2009C5.7508 16.9001 3.63877 15.0742 1.14798 13.9413L2.45898 11.058C5.50323 12.4426 8.08457 14.6743 9.89467 17.4864C11.7048 20.2986 12.6671 23.5723 12.6667 26.9167ZM19.0001 19C16.9004 19 14.8868 18.1659 13.4021 16.6813C11.9175 15.1966 11.0834 13.183 11.0834 11.0834C11.0834 8.98372 11.9175 6.97009 13.4021 5.48543C14.8868 4.00076 16.9004 3.16669 19.0001 3.16669C21.0997 3.16669 23.1133 4.00076 24.598 5.48543C26.0827 6.97009 26.9167 8.98372 26.9167 11.0834C26.9167 13.183 26.0827 15.1966 24.598 16.6813C23.1133 18.1659 21.0997 19 19.0001 19ZM19.0001 15.8334C19.6238 15.8334 20.2415 15.7105 20.8178 15.4718C21.3941 15.2331 21.9177 14.8832 22.3588 14.4421C22.7999 14.001 23.1498 13.4774 23.3885 12.9011C23.6272 12.3248 23.7501 11.7071 23.7501 11.0834C23.7501 10.4596 23.6272 9.8419 23.3885 9.26561C23.1498 8.68931 22.7999 8.16568 22.3588 7.7246C21.9177 7.28352 21.3941 6.93364 20.8178 6.69493C20.2415 6.45622 19.6238 6.33335 19.0001 6.33335C17.7403 6.33335 16.5321 6.8338 15.6413 7.7246C14.7505 8.6154 14.2501 9.82358 14.2501 11.0834C14.2501 12.3431 14.7505 13.5513 15.6413 14.4421C16.5321 15.3329 17.7403 15.8334 19.0001 15.8334Z" fill="white"/>
</svg>
